:SAMPLES-PER-SECOND 30
:FULLY-SPECIFIED
:DEGREES
101
root  34.99891627 36.4980172 -14.72884501 11.68609715 11.0680666 4.387482166
lowerback  -8.602009773 2.870079994 3.302889824
upperback  -4.537469864 3.195149899 -4.605720043
thorax  0.5535539985 1.32246995 -6.372779846
lowerneck  -15.03349972 -4.086500168 -1.170889974
upperneck  11.22869968 -6.405869961 6.608429909
head  6.132900238 -2.710400105 1.661980033
lclavicle  0 -4.497500157e-015 -2.743230041e-014
lhumerus  -43.06480026 27.69149971 68.17669678
lradius  -0.09630606323 -6.507048965e-006 26.01049995
lwrist  4.824992743e-007 -3.790274832e-007 -34.30810165
lhand  -0 -37.03239822 -10.66709995
lfingers  90 7.125020027 -90
lthumb  94.87641191 -25.49836945 101.2098786
rclavicle  0 -4.497500157e-015 -2.743230041e-014
rhumerus  53.61250305 -7.180450439 -53.63550186
rradius  -5.16745672e-007 2.214343908e-008 58.8260994
rwrist  1.380293725e-006 2.528095422e-007 -166.4160004
rhand  -1.770610053e-031 4.327320099 -6.290150166
rfingers  -90 -7.125020027 -90
rthumb  -84.45665499 -9.60138075 -59.80588321
rfemur  -14.25693321 11.03650761 14.44532967
rtibia  -2.757024288 2.163937092 23.59698486
rfoot  -2.41186595 -14.70397949 -44.33341217
rtoes  4.193254943 19.5730997 -102.3446009
lfemur  -12.42167854 -21.97640419 -18.54590225
ltibia  3.290093422 2.430909157 14.99483776
lfoot  0.6996428967 -29.88223457 29.50056076
ltoes  -8.447187085 -18.19514739 -115.4358446
102
root  34.99698188 36.49771382 -14.72783276 11.71941853 11.27421284 4.428788185
lowerback  -8.585080147 2.888030052 3.279289722
upperback  -4.542439938 3.221699953 -4.611909866
thorax  0.5417609811 1.335960031 -6.363749981
lowerneck  -15.03689957 -4.170440197 -1.184960008
upperneck  11.22369957 -6.515110016 6.603390217
head  6.13654995 -2.764400005 1.651470065
lclavicle  0 -4.497500157e-015 -2.743230041e-014
lhumerus  -43.06579971 27.55960083 68.18859863
lradius  -0.09675892442 -6.507048965e-006 26.01639748
lwrist  4.824992743e-007 -3.790274832e-007 -34.45370102
lhand  -4.421191834e-031 -36.99560165 -10.65089989
lfingers  90 7.125020027 -90
lthumb  94.8556777 -25.48372326 101.1690269
rclavicle  0 -4.497500157e-015 -2.743230041e-014
rhumerus  54.03319931 -7.358510017 -52.96139908
rradius  -5.16745672e-007 2.214343908e-008 58.15930176
rwrist  1.380293725e-006 2.528095422e-007 -166.8430023
rhand  -0 4.159510136 -6.280340195
rfingers  -90 -7.125020027 -90
rthumb  -84.4931427 -9.600629119 -59.96919122
rfemur  -14.28001499 11.00547218 14.46043491
rtibia  -2.807481766 2.208883762 23.66153908
rfoot  -2.438848734 -14.55010891 -44.42668915
rtoes  4.165945556 19.57871174 -102.2630938
lfemur  -12.45035553 -22.10327148 -18.55531883
ltibia  3.312963724 2.446548223 14.97796726
lfoot  0.7086215615 -29.90058517 29.43993187
ltoes  -8.460709945 -18.18903141 -115.4791589
103
root  34.99778687 36.49540398 -14.72312897 11.73208904 11.51794624 4.526224136
lowerback  -8.553339958 2.88767004 3.293370008
upperback  -4.56926012 3.220439911 -4.589960098
thorax  0.4957259893 1.333829999 -6.350389957
lowerneck  -15.10739994 -4.263559818 -1.348680019
upperneck  11.3203001 -6.633669853 6.722400188
head  6.193729877 -2.816279888 1.701329947
lclavicle  0 -4.497500157e-015 -2.743230041e-014
lhumerus  -43.02920151 27.58180046 68.17960358
lradius  -0.09720955789 -6.507048965e-006 25.93589973
lwrist  4.824992743e-007 -3.790274832e-007 -34.60860062
lhand  -4.422221343e-031 -37.01330185 -10.68669987
lfingers  90 7.125020027 -90
lthumb  94.87164137 -25.51828474 101.1911885
rclavicle  0 -4.497500157e-015 -2.743230041e-014
rhumerus  54.73100281 -7.5423913 -53.07429886
rradius  -5.16745672e-007 2.214343908e-008 57.13779831
rwrist  1.380293725e-006 2.528095422e-007 -166.4600067
rhand  -0 4.011980057 -6.147079945
rfingers  -90 -7.125020027 -90
rthumb  -84.46208221 -9.708098384 -60.10224362
rfemur  -14.25746536 11.00641155 14.4274168
rtibia  -2.870839834 2.233512163 23.75504303
rfoot  -2.505575657 -14.40226936 -44.60250854
rtoes  4.170663246 19.57774502 -102.2771725
lfemur  -12.3240242 -22.18703842 -18.7027874
ltibia  3.416369438 2.457587004 14.7941246
lfoot  0.6813343763 -29.8610611 29.27055931
ltoes  -8.470198361 -18.18473285 -115.509559
104
root  34.99746548 36.49471914 -14.72434547 11.76634121 11.70052242 4.588185787
lowerback  -8.543669701 2.901530027 3.293929577
upperback  -4.58163023 3.239470005 -4.577270031
thorax  0.4794209898 1.343170047 -6.335879803
lowerneck  -15.16059971 -4.344069958 -1.516160011
upperneck  11.41349983 -6.738490582 6.863460064
head  6.247710228 -2.860690117 1.760419965
lclavicle  0 -4.497500157e-015 -2.743230041e-014
lhumerus  -43.0284996 27.66239929 68.13079834
lradius  -0.09765796363 -6.507048965e-006 25.89710045
lwrist  4.824992743e-007 -3.790274832e-007 -34.61119843
lhand  -4.415797261e-031 -36.90259933 -10.62209988
lfingers  90 7.125020027 -90
lthumb  94.80606035 -25.4588941 101.0670124
rclavicle  0 -4.497500157e-015 -2.743230041e-014
rhumerus  55.45399475 -7.755159378 -52.98820114
rradius  -5.16745672e-007 2.214343908e-008 56.07049942
rwrist  1.380293725e-006 2.528095422e-007 -166.6269989
rhand  -1.769975617e-031 4.046840191 -6.070370197
rfingers  -90 -7.125020027 -90
rthumb  -84.41459134 -9.77646336 -60.06154169
rfemur  -14.28118038 10.9506197 14.41422844
rtibia  -2.926314116 2.223577261 23.82785225
rfoot  -2.560997486 -14.34188366 -44.71392822
rtoes  4.200275841 19.57165068 -102.365559
lfemur  -12.32664108 -22.28169441 -18.75098419
ltibia  3.455648661 2.473623991 14.74177361
lfoot  0.6863350272 -29.87135506 29.19192505
ltoes  -8.449040587 -18.19430982 -115.4417806
